<?xml version="1.0" encoding="utf-8"?>
<!-- Generated by IcoMoon.io -->
<!DOCTYPE svg PUBLIC "-//W3C//DTD SVG 1.1//EN" "http://www.w3.org/Graphics/SVG/1.1/DTD/svg11.dtd">
<svg version="1.1" xmlns="http://www.w3.org/2000/svg" xmlns:xlink="http://www.w3.org/1999/xlink">
    <defs>
        <g id="items">
            <path d="M24.015 7.179c-0.085-0.085-0.195-0.128-0.328-0.128h-7.242c-0.133 0-0.242 0.043-0.328 0.128s-0.128 0.195-0.128 0.327v1.139c0 0.133 0.043 0.242 0.128 0.328s0.195 0.128 0.328 0.128h7.242c0.133 0 0.242-0.043 0.328-0.128s0.128-0.195 0.128-0.328v-1.139c0-0.133-0.043-0.242-0.128-0.327z"></path>
            <path d="M24.015 15.055c-0.085-0.085-0.195-0.128-0.328-0.128h-7.242c-0.133 0-0.242 0.043-0.328 0.128s-0.128 0.195-0.128 0.328v1.139c0 0.133 0.043 0.242 0.128 0.328s0.195 0.128 0.328 0.128h7.242c0.133 0 0.242-0.043 0.328-0.128s0.128-0.195 0.128-0.328v-1.139c0-0.133-0.043-0.242-0.128-0.328z"></path>
            <path d="M24.015 22.976c-0.085-0.085-0.195-0.128-0.328-0.128h-7.242c-0.133 0-0.242 0.043-0.328 0.128s-0.128 0.195-0.128 0.328v1.139c0 0.133 0.043 0.242 0.128 0.328s0.195 0.128 0.328 0.128h7.242c0.133 0 0.242-0.043 0.328-0.128s0.128-0.195 0.128-0.328v-1.139c0-0.133-0.043-0.242-0.128-0.328z"></path>
            <path d="M14.103 5.287c-0.316-0.316-0.702-0.476-1.148-0.476h-3.285c-0.446 0-0.832 0.16-1.148 0.476s-0.476 0.702-0.476 1.148v3.285c0 0.446 0.16 0.832 0.476 1.148s0.702 0.476 1.148 0.476h3.285c0.446 0 0.832-0.16 1.148-0.476s0.476-0.702 0.476-1.148v-3.285c0-0.446-0.16-0.832-0.476-1.148zM9.525 6.435c0-0.045 0.010-0.069 0.043-0.102s0.057-0.043 0.102-0.043h3.285c0.045 0 0.069 0.010 0.102 0.043s0.043 0.057 0.043 0.102v3.285c0 0.045-0.010 0.069-0.043 0.102s-0.057 0.043-0.102 0.043h-3.285c-0.045 0-0.069-0.010-0.102-0.043s-0.043-0.057-0.043-0.102v-3.285z"></path>
            <path d="M12.955 12.685h-3.285c-0.446 0-0.832 0.16-1.148 0.476s-0.476 0.702-0.476 1.148v3.285c0 0.446 0.16 0.832 0.476 1.148s0.702 0.476 1.148 0.476h3.285c0.446 0 0.832-0.16 1.148-0.476s0.476-0.702 0.476-1.148v-3.285c0-0.446-0.16-0.832-0.476-1.148s-0.702-0.476-1.148-0.476zM9.525 14.309c0-0.045 0.010-0.069 0.043-0.102s0.057-0.043 0.102-0.043h3.285c0.045 0 0.069 0.010 0.102 0.043s0.043 0.057 0.043 0.102v3.285c0 0.045-0.010 0.069-0.043 0.102s-0.057 0.043-0.102 0.043h-3.285c-0.045 0-0.069-0.010-0.102-0.043s-0.043-0.057-0.043-0.102v-3.285z"></path>
            <path d="M12.955 20.607h-3.285c-0.446 0-0.832 0.16-1.148 0.476s-0.476 0.702-0.476 1.148v3.285c0 0.446 0.16 0.832 0.476 1.148s0.702 0.476 1.148 0.476h3.285c0.446 0 0.832-0.16 1.148-0.476s0.476-0.702 0.476-1.148v-3.285c0-0.446-0.16-0.832-0.476-1.148s-0.702-0.476-1.148-0.476zM9.525 22.231c0-0.045 0.010-0.069 0.043-0.102s0.057-0.043 0.102-0.043h3.285c0.045 0 0.069 0.010 0.102 0.043s0.043 0.057 0.043 0.102v3.285c0 0.045-0.010 0.069-0.043 0.102s-0.057 0.043-0.102 0.043h-3.285c-0.045 0-0.069-0.010-0.102-0.043s-0.043-0.057-0.043-0.102v-3.285z"></path>
            <path d="M26.628 30.426h-21.090c-0.743 0-1.348-0.598-1.348-1.333v-26.15c0-0.735 0.605-1.333 1.348-1.333h21.090c0.743 0 1.348 0.598 1.348 1.333v26.15c0 0.735-0.605 1.333-1.348 1.333zM6.066 28.551h20.035v-25.065h-20.035v25.065z"></path>
        </g>
    </defs>
</svg>
