<?xml version="1.0" encoding="utf-8"?>
<!-- Generated by IcoMoon.io -->
<!DOCTYPE svg PUBLIC "-//W3C//DTD SVG 1.1//EN" "http://www.w3.org/Graphics/SVG/1.1/DTD/svg11.dtd">
<svg version="1.1" xmlns="http://www.w3.org/2000/svg" xmlns:xlink="http://www.w3.org/1999/xlink" width="32" height="32" viewBox="0 0 32 32">
<g id="icomoon-ignore">
	<line stroke-width="1" x1="" y1="" x2="" y2="" stroke="#449FDB" opacity=""></line>
</g>
	<path d="M28.997 26.486c-0.973-0.576-2.338-1.202-3.973-1.825h0.015l-0.665-0.242c-1.774-0.646-3.034-1.182-3.832-1.853-0.747-0.629-1.085-1.384-1.128-2.526l-0.014-0.36-0.212 0.29c-0.009 0.013-0.968 1.291-3.111 1.291-2.136 0-3.102-1.261-3.111-1.274l-0.211-0.285-0.014 0.354c-0.046 1.136-0.384 1.889-1.133 2.515-0.798 0.668-2.055 1.202-3.826 1.847-1.925 0.7-3.524 1.415-4.624 2.066-1.186 0.702-1.787 1.323-1.787 1.846v3.39h29.413v-3.39c0-0.523-0.601-1.143-1.787-1.845zM3.212 29.88v-1.193c0.327-0.297 1.542-1.208 5.2-2.539 2.478-0.902 4.46-1.73 5.462-3.412 0.682 0.242 1.423 0.365 2.203 0.365s1.522-0.124 2.203-0.369c1.001 1.681 2.969 2.505 5.428 3.402 0.011 0.004 0.022 0.008 0.034 0.013 3.657 1.333 4.873 2.244 5.201 2.541v1.192l-25.731 0z" fill="#000000"></path>
	<path d="M22.293 8.825c0.037-0.405 0.003-0.921-0.137-1.476l0.001-0.158 5.327-2.042-11.313-4.879-11.385 4.879 2.094 0.783v4.949h-0.244c-0.176 0-0.319 0.167-0.319 0.373v3.766c0 0.206 0.143 0.373 0.319 0.373h1.753c0.176 0 0.319-0.167 0.319-0.373v-3.765c0-0.206-0.143-0.373-0.319-0.373h-0.258v-4.482l1.835 0.686 0.005 0.336c-0.126 0.528-0.155 1.018-0.118 1.406 0.063 0.669 0.185 1.449 0.268 1.942-0.238 0.337-0.414 0.814-0.414 1.437 0 0.023 0.001 0.047 0.003 0.070 0.058 0.773 0.201 1.321 0.449 1.725 0.267 0.433 0.607 0.62 0.815 0.722 0.292 1.491 0.82 2.090 1.172 2.489 0.119 0.135 0.187 0.214 0.21 0.275 0.020 0.051 0.044 0.101 0.072 0.148 0.048 0.080 1.201 1.958 3.645 1.958 2.448 0 3.626-1.947 3.675-2.030 0.017-0.029 0.033-0.059 0.047-0.090 0.028-0.062 0.106-0.15 0.205-0.262 0.352-0.399 0.881-0.999 1.171-2.489 0.209-0.102 0.549-0.288 0.816-0.721 0.249-0.404 0.392-0.952 0.451-1.725 0.002-0.024 0.003-0.047 0.003-0.071 0-0.621-0.175-1.098-0.413-1.436 0.083-0.493 0.205-1.274 0.268-1.944zM20.39 13.016c-0.019 0.011-0.054 0.027-0.080 0.040-0.263 0.126-0.81 0.389-0.968 1.243-0.193 1.041-0.476 1.362-0.75 1.673-0.157 0.178-0.334 0.379-0.473 0.659-0.12 0.178-0.794 1.088-2.047 1.088-1.212 0-1.864-0.804-2.011-1.010-0.145-0.322-0.346-0.55-0.51-0.737-0.274-0.311-0.557-0.632-0.75-1.673-0.158-0.854-0.705-1.117-0.967-1.243-0.027-0.013-0.061-0.029-0.080-0.040-0.025-0.042-0.124-0.243-0.172-0.843 0.004-0.178 0.038-0.267 0.055-0.3 0.315-0.204 0.483-0.581 0.413-0.958-0.002-0.010-0.138-0.747-0.243-1.524 1.866 0.561 4.991 1.095 8.531 0.028-0.105 0.766-0.238 1.486-0.24 1.495-0.070 0.377 0.097 0.753 0.411 0.957 0.017 0.033 0.052 0.122 0.056 0.301-0.049 0.6-0.148 0.801-0.173 0.843z" fill="#000000"></path>
</svg>
