<?xml version="1.0" encoding="utf-8"?>
<!-- Generated by IcoMoon.io -->
<!DOCTYPE svg PUBLIC "-//W3C//DTD SVG 1.1//EN" "http://www.w3.org/Graphics/SVG/1.1/DTD/svg11.dtd">
<svg version="1.1" xmlns="http://www.w3.org/2000/svg" xmlns:xlink="http://www.w3.org/1999/xlink" width="32" height="32" viewBox="0 0 32 32">
<g id="icomoon-ignore">
	<line stroke-width="1" x1="" y1="" x2="" y2="" stroke="#449FDB" opacity=""></line>
</g>
	<path d="M23.813 29.5l-0 1.701h8.159l-0.001-0.079c-0.003-0.246-0.066-6.037-0.441-6.67-0.55-0.933-1.746-1.551-4.217-2.584-1.041-0.435-1.837-0.824-2.338-1.309-0.465-0.45-0.679-0.98-0.715-1.772l-0.010-0.209-0.13 0.165c-0.005 0.006-0.507 0.621-1.991 0.621-1.474-0-1.836-0.633-1.839-0.639l-0.136-0.258-0.012 0.291c-0.026 0.645-0.35 2.213-2.809 2.828l-0.213 0.053 2.158 1.011c0.506-0.227 1.391-1.047 1.427-1.081l0.004-0.005c0.162-0.18 0.309-0.372 0.439-0.573 0.305 0.052 0.635 0.078 0.98 0.078 0 0 0 0 0 0 0.354 0 0.695-0.026 1.014-0.079 0.729 1.212 2.077 1.851 3.512 2.451 1.433 0.599 2.869 1.229 3.326 1.768 0.101 0.569 0.2 2.238 0.253 4.286l-6.422 0.005z" fill="#000000"></path>
	<path d="M20.513 24.728c-1.12-0.69-2.702-1.382-4.103-1.968-1.333-0.556-2.327-0.99-2.986-1.514-0.639-0.508-0.958-1.103-1.064-1.99l-0.041-0.219-0.108 0.197c-0.001 0.003-0.124 0.275-0.492 0.544-0.341 0.249-0.969 0.546-2.022 0.546-2.019 0-2.688-1.118-2.694-1.129l-0.118-0.207-0.027 0.237c-0.103 0.898-0.419 1.499-1.058 2.010-0.66 0.528-1.702 0.984-2.996 1.524-0.053 0.022-0.109 0.045-0.167 0.069-0.501 0.207-1.125 0.464-1.638 0.854-0.61 0.463-0.919 1.021-0.919 1.658v5.86h22.203v-4.412c0-0.654-0.579-1.328-1.769-2.061zM1.784 25.34c0-0.028 0-0.114 0.245-0.3 0.336-0.256 0.845-0.465 1.256-0.635 0.060-0.025 0.118-0.049 0.174-0.072 1.78-0.744 3.32-1.387 4.239-2.625 0.602 0.213 1.274 0.321 1.997 0.321 0.671 0 1.293-0.094 1.849-0.278 0.921 1.21 2.446 1.846 4.207 2.581 1.161 0.486 2.483 1.058 3.484 1.622 0.935 0.526 1.25 0.859 1.34 0.973v2.567h-18.793v-4.155z" fill="#000000"></path>
	<path d="M14.996 8.739c0.033-0.399-0.002-0.914-0.141-1.465l0.001-0.252 3.877-1.59-8.936-3.968-9.066 4.144 1.47 0.563v4.35c0 0.005 0.001 0.010 0.001 0.015h-0.155c-0.141 0-0.256 0.134-0.256 0.3v3.025c0 0.165 0.115 0.299 0.256 0.299h1.408c0.141 0 0.256-0.134 0.256-0.299v-3.025c0-0.165-0.115-0.3-0.256-0.3h-0.197c0-0.005 0.001-0.010 0.001-0.015v-3.944l1.364 0.523 0.003 0.182c-0.138 0.549-0.172 1.061-0.138 1.458 0.056 0.65 0.167 1.42 0.232 1.841-0.237 0.35-0.357 0.796-0.357 1.326 0 0.021 0.001 0.041 0.002 0.061 0.099 1.443 0.483 1.935 1.072 2.251 0.244 1.4 0.693 1.959 0.991 2.33 0.108 0.135 0.166 0.209 0.19 0.277 0.015 0.044 0.034 0.088 0.057 0.129 0.040 0.074 1.008 1.805 3.067 1.805 2.060 0 3.051-1.795 3.092-1.872 0.014-0.025 0.026-0.052 0.037-0.078 0.026-0.063 0.084-0.137 0.184-0.261 0.298-0.371 0.747-0.93 0.991-2.33 0.589-0.316 0.973-0.809 1.073-2.25 0.001-0.020 0.002-0.041 0.002-0.062 0-0.649-0.189-1.077-0.356-1.328 0.078-0.504 0.179-1.221 0.232-1.841zM13.463 12.703c-0.002 0.004-0.004 0.008-0.006 0.010-0.008 0.007-0.050 0.029-0.084 0.047-0.233 0.123-0.666 0.352-0.796 1.119-0.167 0.992-0.413 1.299-0.652 1.596-0.132 0.164-0.281 0.35-0.397 0.607-0.112 0.184-0.694 1.046-1.786 1.046-1.069 0-1.642-0.796-1.756-0.973-0.119-0.296-0.284-0.5-0.429-0.681-0.238-0.297-0.485-0.604-0.653-1.595-0.129-0.768-0.563-0.996-0.795-1.119-0.034-0.018-0.076-0.040-0.082-0.046-0.002-0.003-0.004-0.007-0.006-0.011-0.026-0.047-0.114-0.243-0.157-0.823 0.004-0.205 0.045-0.299 0.062-0.328 0.258-0.177 0.393-0.511 0.338-0.839-0.006-0.037-0.118-0.704-0.205-1.409 1.567 0.511 4.283 1.032 7.365 0.030-0.089 0.711-0.2 1.37-0.202 1.379-0.055 0.327 0.080 0.661 0.337 0.838 0.017 0.029 0.059 0.123 0.062 0.329-0.043 0.579-0.131 0.776-0.157 0.823z" fill="#000000"></path>
	<path d="M27.723 11.787h-0.187v-2.945l1.089-0.417-6.671-2.771-6.672 2.64 2.851 1.169c-0.068 0.348-0.083 0.669-0.061 0.927 0.039 0.468 0.113 1.009 0.17 1.391-0.173 0.268-0.261 0.607-0.261 1.010 0 0.016 0 0.031 0.001 0.047 0.073 1.095 0.356 1.475 0.789 1.718 0.181 1.060 0.511 1.485 0.73 1.767 0.078 0.101 0.12 0.156 0.136 0.204 0.011 0.034 0.026 0.068 0.043 0.1 0.030 0.056 0.743 1.381 2.271 1.381 1.532 0 2.26-1.373 2.29-1.431 0.010-0.020 0.020-0.040 0.028-0.061 0.018-0.045 0.060-0.1 0.133-0.193 0.219-0.282 0.55-0.707 0.73-1.767 0.434-0.243 0.717-0.623 0.79-1.718 0.001-0.016 0.002-0.032 0.002-0.048 0-0.492-0.138-0.818-0.261-1.011 0.048-0.32 0.129-0.899 0.17-1.391 0.020-0.245 0.007-0.547-0.052-0.874l0.972-0.372v2.644h-0.162c-0.114 0-0.206 0.108-0.206 0.241v2.434c0 0.133 0.092 0.241 0.206 0.241h1.133c0.114 0 0.206-0.108 0.206-0.241v-2.434c-0-0.133-0.092-0.241-0.206-0.241zM24.667 13.386c-0.001 0.002-0.002 0.003-0.002 0.004-0.009 0.006-0.037 0.021-0.055 0.031-0.162 0.088-0.498 0.271-0.595 0.863-0.122 0.748-0.302 0.979-0.476 1.204-0.097 0.125-0.207 0.266-0.293 0.462-0.083 0.14-0.505 0.782-1.293 0.782-0.771 0-1.186-0.592-1.271-0.727-0.089-0.226-0.21-0.382-0.317-0.519-0.174-0.223-0.353-0.455-0.476-1.202-0.096-0.591-0.433-0.775-0.594-0.863-0.020-0.011-0.046-0.025-0.055-0.031-0.001-0.001-0.001-0.003-0.002-0.004-0.019-0.034-0.082-0.18-0.113-0.616 0.002-0.144 0.029-0.213 0.041-0.236 0.193-0.139 0.294-0.398 0.252-0.652-0.001-0.005-0.048-0.292-0.099-0.665 2.186 0.682 4.115 0.337 5.27-0.026-0.053 0.385-0.102 0.686-0.102 0.691-0.041 0.253 0.059 0.512 0.251 0.651 0.012 0.023 0.039 0.092 0.042 0.237-0.031 0.436-0.095 0.582-0.113 0.616z" fill="#000000"></path>
</svg>
